<?xml version="1.0" encoding="UTF-8"?>
<svg version="1.1" xmlns="http://www.w3.org/2000/svg" width="282" height="266">
<path d="M0 0 C6.09127286 6.26047489 6.94300746 11.82415627 7.25 20.3125 C7.98605469 20.2403125 8.72210938 20.168125 9.48046875 20.09375 C10.45628906 20.0009375 11.43210938 19.908125 12.4375 19.8125 C13.40042969 19.7196875 14.36335938 19.626875 15.35546875 19.53125 C18.00187667 19.33125156 20.59760865 19.27370817 23.25 19.3125 C23.32476562 18.62285156 23.39953125 17.93320313 23.4765625 17.22265625 C24.47185852 10.10921704 26.27484453 4.62998269 31.25 -0.6875 C34.80896377 -3.31590902 37.75068807 -3.72712793 42.1875 -3.375 C43.7034375 -3.0346875 43.7034375 -3.0346875 45.25 -2.6875 C46.24 0.2825 46.24 0.2825 47.25 3.3125 C44.99502688 5.7409326 42.96027654 7.49212855 40.125 9.25 C36.85381416 11.59672027 36.09504067 12.42531292 35.25 16.3125 C34.4293136 22.82177976 35.01928926 27.11262383 38.9609375 32.42578125 C42.76879744 37.99910353 43.22808628 43.76747262 42.25 50.3125 C40.56819528 54.82501672 38.51763202 59.06743887 36.25 63.3125 C35.59 63.3125 34.93 63.3125 34.25 63.3125 C34.25 63.9725 34.25 64.6325 34.25 65.3125 C34.806875 65.539375 35.36375 65.76625 35.9375 66 C43.01996311 70.01977636 45.81430811 76.32617227 47.9765625 83.8359375 C51.34537848 98.4341401 44.75473313 112.0178141 37.25 124.3125 C32.66674749 131.25553807 27.8055942 138.111559 22.25 144.3125 C21.59 144.3125 20.93 144.3125 20.25 144.3125 C19.92 145.3025 19.59 146.2925 19.25 147.3125 C16.6875 148.5 16.6875 148.5 14.25 149.3125 C-1.30316567 134.26104936 -17.34720184 114.92614669 -18 92.25 C-17.7671416 83.37398561 -15.25983836 74.86912092 -8.8671875 68.41015625 C-7.20142381 66.97705996 -5.52024119 65.61339771 -3.75 64.3125 C-4.08773437 63.72082031 -4.42546875 63.12914063 -4.7734375 62.51953125 C-5.21945313 61.72933594 -5.66546875 60.93914062 -6.125 60.125 C-6.56585938 59.34769531 -7.00671875 58.57039063 -7.4609375 57.76953125 C-10.89426816 51.22539493 -11.67882373 45.67024095 -10.75 38.3125 C-9.34765637 34.47875482 -7.68719153 30.24969153 -4.75 27.3125 C-4.03473368 17.98529734 -4.03473368 17.98529734 -6.75 9.3125 C-9.63318775 8.12914605 -9.63318775 8.12914605 -12.75 7.3125 C-15.1875 5.5 -15.1875 5.5 -16.75 3.3125 C-16.8125 0.6875 -16.8125 0.6875 -15.75 -1.6875 C-10.59351413 -5.28141439 -4.90454158 -3.00960506 0 0 Z " fill="#6055A2" transform="translate(125.75,55.6875)"/>
<path d="M0 0 C10.84103041 10.31673721 23.19868273 26.03619257 27.31640625 40.6328125 C26.9140625 42.890625 26.9140625 42.890625 26.31640625 44.6328125 C14.70928699 45.67481525 14.70928699 45.67481525 9.31640625 43.6328125 C5.88833619 39.64200202 4.19788411 35.39381566 2.21435547 30.5703125 C-0.08488378 25.60925685 -4.02625171 21.62833342 -7.68359375 17.6328125 C-8.41578125 16.83101562 -9.14796875 16.02921875 -9.90234375 15.203125 C-26.28934218 -1.93398251 -50.12623372 -12.94411318 -73.83203125 -13.66796875 C-75.90746679 -13.68718575 -77.98309908 -13.69081659 -80.05859375 -13.6796875 C-81.69876465 -13.67231567 -81.69876465 -13.67231567 -83.37207031 -13.66479492 C-105.24624062 -13.34808396 -130.05907063 -4.31228764 -145.67578125 11.671875 C-146.81261952 12.97460383 -147.92973865 14.29513086 -149.015625 15.640625 C-150.68359375 17.6328125 -150.68359375 17.6328125 -153.09375 19.9453125 C-155.97093766 22.93099139 -158.11004052 26.01287098 -160.30859375 29.5078125 C-160.69015625 30.09433594 -161.07171875 30.68085937 -161.46484375 31.28515625 C-163.37969027 34.28948442 -164.96632675 37.19575813 -166.26953125 40.515625 C-166.73617187 41.54429688 -167.2028125 42.57296875 -167.68359375 43.6328125 C-171.06127849 44.75870741 -173.69171447 44.76575525 -177.24609375 44.7578125 C-178.40238281 44.76039062 -179.55867188 44.76296875 -180.75 44.765625 C-183.68359375 44.6328125 -183.68359375 44.6328125 -185.68359375 43.6328125 C-182.56036687 23.15832518 -164.66077455 3.60685362 -148.51074219 -8.30786133 C-146.13105382 -10.01313508 -143.71984979 -11.66565483 -141.28662109 -13.29345703 C-139.92431023 -14.20595218 -138.57754949 -15.14159488 -137.234375 -16.08203125 C-125.74985204 -23.6381659 -111.10885236 -27.99019412 -97.68359375 -30.3671875 C-96.95914063 -30.49738281 -96.2346875 -30.62757812 -95.48828125 -30.76171875 C-60.28442377 -35.78128018 -26.24007541 -23.1462674 0 0 Z " fill="#5F559E" transform="translate(220.68359375,41.3671875)"/>
<path d="M0 0 C4.51052681 0.16539386 6.15197322 0.5300487 9.49438477 3.78076172 C11.49719927 6.77907049 13.11542727 9.97596017 14.70678711 13.20751953 C24.3186781 31.65236384 45.46010419 44.54167658 64.76098633 50.68408203 C72.57846683 52.96463228 80.48774499 54.71477451 88.64672852 55.01123047 C89.63801758 55.05119141 90.62930664 55.09115234 91.65063477 55.13232422 C115.5233252 55.62069454 140.85078538 48.6229112 158.64672852 32.01123047 C159.14366211 31.55377441 159.6405957 31.09631836 160.15258789 30.625 C167.97159358 23.36285784 175.40932168 15.80549146 179.57641602 5.77294922 C180.66550986 3.5272557 181.64960759 2.49943897 183.64672852 1.01123047 C185.59179688 0.62548828 185.59179688 0.62548828 187.73657227 0.58935547 C188.50437012 0.57412842 189.27216797 0.55890137 190.06323242 0.54321289 C193.60358953 0.58830609 197.11438998 0.76587509 200.64672852 1.01123047 C198.98026421 16.50230716 184.70183421 30.16937032 174.64672852 41.01123047 C174.11563477 41.58486328 173.58454102 42.15849609 173.03735352 42.74951172 C171.95260782 43.88211384 170.80715197 44.95630005 169.64672852 46.01123047 C168.98672852 46.01123047 168.32672852 46.01123047 167.64672852 46.01123047 C167.64672852 46.67123047 167.64672852 47.33123047 167.64672852 48.01123047 C145.06896574 67.18408826 113.73521669 75.00359267 84.64672852 73.01123047 C56.56523195 70.3468975 31.54128215 57.74052583 11.64672852 38.01123047 C10.75727539 37.13466797 9.86782227 36.25810547 8.95141602 35.35498047 C0.03127506 26.07132279 -8.19381977 14.64903731 -11.35327148 2.01123047 C-8.90455475 -0.43748627 -3.3510881 0.10499311 0 0 Z " fill="#6056A1" transform="translate(46.353271484375,175.98876953125)"/>
<path d="M0 0 C3 2 3 2 3.6875 4.625 C3.790625 5.40875 3.89375 6.1925 4 7 C3.40316406 7.10183594 2.80632812 7.20367187 2.19140625 7.30859375 C-1.71691998 8.54170203 -3.74348539 11.71320001 -6 15 C-8.40473964 19.64856734 -9.39579765 23.72269795 -9 29 C-9.66 29 -10.32 29 -11 29 C-10.67 30.65 -10.34 32.3 -10 34 C20.195 34.495 20.195 34.495 51 35 C48.58522669 19.58404904 48.58522669 19.58404904 39.7421875 8.078125 C37.97622411 5.97163952 37.39880219 4.68285108 37 2 C38.32 1.34 39.64 0.68 41 0 C41 0.99 41 1.98 41 3 C40.34 3 39.68 3 39 3 C39 3.66 39 4.32 39 5 C39.556875 5.226875 40.11375 5.45375 40.6875 5.6875 C47.76996311 9.70727636 50.56430811 16.01367227 52.7265625 23.5234375 C56.09537848 38.1216401 49.50473313 51.7053141 42 64 C37.41674749 70.94303807 32.5555942 77.799059 27 84 C26.34 84 25.68 84 25 84 C24.505 85.485 24.505 85.485 24 87 C21.4375 88.1875 21.4375 88.1875 19 89 C3.44683433 73.94854936 -12.59720184 54.61364669 -13.25 31.9375 C-13.0171416 23.06148561 -10.50983836 14.55662092 -4.1171875 8.09765625 C-2.45142381 6.66455996 -0.77024119 5.30089771 1 4 C0.67 2.68 0.34 1.36 0 0 Z " fill="#3E3275" transform="translate(121,116)"/>
<path d="M0 0 C15.84 0 31.68 0 48 0 C45.04205546 9.85981512 41.7973066 15.09027893 35.68359375 22.8515625 C34.55243248 24.29503976 33.46112976 25.77057121 32.41015625 27.2734375 C31.94480469 27.84320313 31.47945312 28.41296875 31 29 C30.34 29 29.68 29 29 29 C28.67 29.99 28.34 30.98 28 32 C25.4375 33.1875 25.4375 33.1875 23 34 C1.94652406 13.62566845 1.94652406 13.62566845 0 0 Z " fill="#6055A1" transform="translate(117,171)"/>
<path d="M0 0 C-0.5625 1.9375 -0.5625 1.9375 -2 4 C-5.25 4.625 -5.25 4.625 -9 5 C-11.01416562 5.62256028 -13.02015519 6.27566653 -15 7 C-15 7.66 -15 8.32 -15 9 C-15.90878906 9.41958984 -15.90878906 9.41958984 -16.8359375 9.84765625 C-24.15518879 13.34963648 -32.81329768 17.54204711 -38 24 C-37.76716851 27.14921909 -37.76716851 27.14921909 -37 30 C-36.01 30 -35.02 30 -34 30 C-34 30.99 -34 31.98 -34 33 C-28.65530536 31.90924599 -25.80032934 30.23181417 -21.80078125 26.578125 C-14.41656792 20.1069272 -1.91089045 13 8 13 C8 13.66 8 14.32 8 15 C7.22398438 15.268125 6.44796875 15.53625 5.6484375 15.8125 C-8.90111416 21.09061898 -24.47263772 28.79128889 -34.33203125 41.0078125 C-36 43 -36 43 -38.41015625 45.3125 C-41.28734391 48.29817889 -43.42644677 51.38005848 -45.625 54.875 C-46.0065625 55.46152344 -46.388125 56.04804687 -46.78125 56.65234375 C-48.69609652 59.65667192 -50.282733 62.56294563 -51.5859375 65.8828125 C-52.05257812 66.91148438 -52.51921875 67.94015625 -53 69 C-56.37768474 70.12589491 -59.00812072 70.13294275 -62.5625 70.125 C-63.71878906 70.12757812 -64.87507813 70.13015625 -66.06640625 70.1328125 C-69 70 -69 70 -71 69 C-67.8771111 48.52772834 -49.9772389 28.96934706 -33.82568359 17.05883789 C-30.92368722 14.97838823 -27.97395137 12.97580167 -25 11 C-24.12214844 10.41089844 -23.24429688 9.82179688 -22.33984375 9.21484375 C-16.13601611 5.27062163 -7.49667312 0 0 0 Z " fill="#6056A1" transform="translate(106,16)"/>
<path d="M0 0 C0.92133224 -0.00807175 1.84266449 -0.01614349 2.79191589 -0.02445984 C4.74643054 -0.03831842 6.70096957 -0.0490326 8.65551758 -0.05688477 C11.64516139 -0.07408751 14.63369678 -0.11795609 17.62304688 -0.16210938 C19.5195231 -0.17223671 21.41600874 -0.18075269 23.3125 -0.1875 C24.20741653 -0.20500809 25.10233307 -0.22251617 26.02436829 -0.24055481 C32.19488857 -0.21899578 32.19488857 -0.21899578 35.45581055 2.03833008 C36.85546875 4.23828125 36.85546875 4.23828125 36.79296875 7.86328125 C35.85546875 11.23828125 35.85546875 11.23828125 32.85546875 13.23828125 C29.85682131 13.45889272 26.95339701 13.56633424 23.953125 13.57421875 C23.07901474 13.58087555 22.20490448 13.58753235 21.30430603 13.59439087 C19.45590316 13.60451413 17.60746377 13.60920799 15.7590332 13.60888672 C12.93184188 13.61325979 10.10621193 13.64958127 7.27929688 13.6875 C5.48307826 13.69336826 3.68685222 13.69733759 1.890625 13.69921875 C1.04573013 13.71358978 0.20083527 13.72796082 -0.66966248 13.74276733 C-6.52729689 13.69719134 -6.52729689 13.69719134 -9.69628906 11.34106445 C-11.14453125 9.23828125 -11.14453125 9.23828125 -11.3515625 7.1328125 C-9.80350528 -1.03663799 -7.70749158 0.06319134 0 0 Z " fill="#5E549C" transform="translate(222.14453125,101.76171875)"/>
<path d="M0 0 C1.26096748 0.00022659 1.26096748 0.00022659 2.54740906 0.00045776 C3.90223137 0.01594162 3.90223137 0.01594162 5.28442383 0.03173828 C6.67640739 0.03598312 6.67640739 0.03598312 8.09651184 0.04031372 C11.06162386 0.05151242 14.02643429 0.07661644 16.99145508 0.10205078 C19.00121634 0.11208098 21.01098234 0.12120676 23.02075195 0.12939453 C27.94860261 0.15145074 32.8762277 0.18597849 37.80395508 0.22705078 C39.38208008 3.54736328 39.38208008 3.54736328 40.80395508 7.22705078 C39.71221961 9.73804235 38.72218604 11.30881982 36.80395508 13.22705078 C31.17690662 13.51989454 25.5472701 13.54115814 19.91333008 13.57714844 C18.01411672 13.59368872 16.11496511 13.62095337 14.21606445 13.65917969 C11.47940743 13.71400818 8.74421276 13.73583325 6.00708008 13.75048828 C5.16107239 13.77315765 4.3150647 13.79582703 3.44342041 13.81918335 C-0.9278296 13.80355636 -2.67688444 13.62099615 -6.27124023 10.89355469 C-8.19604492 8.22705078 -8.19604492 8.22705078 -8.19604492 5.03955078 C-6.64276385 0.67094778 -4.30793302 -0.02587347 0 0 Z " fill="#6156A0" transform="translate(31.196044921875,101.77294921875)"/>
<path d="M0 0 C0.87411026 -0.00524185 1.74822052 -0.0104837 2.64881897 -0.0158844 C4.49723244 -0.02230683 6.34568677 -0.02096473 8.1940918 -0.01245117 C11.02141209 -0.00394759 13.84670786 -0.03268773 16.67382812 -0.06445312 C18.47005148 -0.0660654 20.26627841 -0.0654871 22.0625 -0.0625 C23.3298423 -0.07935097 23.3298423 -0.07935097 24.62278748 -0.09654236 C30.47506768 -0.02712299 30.47506768 -0.02712299 33.63110352 2.30834961 C35.09765625 4.43359375 35.09765625 4.43359375 35.59765625 6.93359375 C34.90687365 10.38750675 33.94371208 11.33881155 31.09765625 13.43359375 C28.01398622 14.02322737 24.97515278 13.97027285 21.84375 13.9296875 C20.94648697 13.93114273 20.04922394 13.93259796 19.12477112 13.93409729 C17.23101549 13.93243954 15.33724623 13.92089212 13.44360352 13.90014648 C10.5419002 13.87116112 7.64202053 13.87954578 4.74023438 13.89257812 C2.89973069 13.8863415 1.05923278 13.87795116 -0.78125 13.8671875 C-2.08443932 13.87159096 -2.08443932 13.87159096 -3.41395569 13.87608337 C-4.62552589 13.85705711 -4.62552589 13.85705711 -5.86157227 13.83764648 C-6.92602318 13.82954201 -6.92602318 13.82954201 -8.01197815 13.8212738 C-10.5013596 13.31074635 -11.4119409 12.46966372 -12.90234375 10.43359375 C-12.68870876 4.4518141 -12.68870876 4.4518141 -10.59446716 1.74009705 C-7.56664526 -0.59771074 -3.67830733 -0.01274995 0 0 Z " fill="#5F549E" transform="translate(223.90234375,148.56640625)"/>
<path d="M0 0 C0.89102417 -0.00945648 1.78204834 -0.01891296 2.70007324 -0.02865601 C3.65949829 -0.02258331 4.61892334 -0.01651062 5.60742188 -0.01025391 C6.59488403 -0.01312408 7.58234619 -0.01599426 8.59973145 -0.01895142 C10.68774997 -0.02099316 12.77578758 -0.01545565 14.86376953 -0.00292969 C18.06391071 0.01312209 21.26278884 -0.002775 24.46289062 -0.02197266 C26.49023717 -0.01999024 28.51758293 -0.01614661 30.54492188 -0.01025391 C31.98405945 -0.01936295 31.98405945 -0.01936295 33.45227051 -0.02865601 C34.78880676 -0.01447128 34.78880676 -0.01447128 36.15234375 0 C37.32790833 0.00358017 37.32790833 0.00358017 38.52722168 0.00723267 C41.12046172 0.48938065 42.00762515 1.29598181 43.57617188 3.38818359 C44.22070291 8.54443189 44.22070291 8.54443189 42.31002808 11.04568481 C40.20320488 12.67696633 39.10159088 12.79466271 36.45947266 12.86816406 C35.63496613 12.8976413 34.81045959 12.92711853 33.96096802 12.95748901 C32.62967361 12.98119064 32.62967361 12.98119064 31.27148438 13.00537109 C30.3553537 13.03043732 29.43922302 13.05550354 28.49533081 13.08132935 C26.55711516 13.13030491 24.61869971 13.1718519 22.68017578 13.20654297 C19.71870138 13.2628503 16.75939528 13.35123097 13.79882812 13.44287109 C11.91475747 13.48647893 10.03064219 13.52820744 8.14648438 13.56787109 C7.26300323 13.59581757 6.37952209 13.62376404 5.4692688 13.65255737 C0.72292114 13.7129101 -2.66548888 13.65512676 -6.42382812 10.38818359 C-7.42382812 6.88818359 -7.42382812 6.88818359 -7.42382812 3.38818359 C-5.26797939 0.40246323 -3.59265751 0.0109414 0 0 Z " fill="#5E539D" transform="translate(227.423828125,125.61181640625)"/>
<path d="M0 0 C1.31047806 -0.00218285 1.31047806 -0.00218285 2.64743042 -0.00440979 C4.48813219 -0.00275428 6.3288483 0.00876801 8.16943359 0.02954102 C10.98985314 0.05856972 13.80840063 0.0501286 16.62890625 0.03710938 C18.41927998 0.04334493 20.20964778 0.05173443 22 0.0625 C23.26567307 0.05809654 23.26567307 0.05809654 24.55691528 0.05360413 C30.43828559 0.14870119 30.43828559 0.14870119 32.56222534 1.8690033 C34.32627164 4.06850224 34.66240874 5.69745067 34.8671875 8.49609375 C33.88988531 11.20246904 33.46206305 12.19865597 30.8671875 13.49609375 C27.85176103 13.63199977 24.86061249 13.70887554 21.84375 13.734375 C20.49716812 13.74648262 20.49716812 13.74648262 19.12338257 13.75883484 C17.22192315 13.77267666 15.32043886 13.78339838 13.41894531 13.79125977 C10.51058966 13.80848476 7.60336718 13.85237066 4.6953125 13.89648438 C2.8489667 13.9066102 1.00261123 13.91512665 -0.84375 13.921875 C-1.7136557 13.93938309 -2.5835614 13.95689117 -3.47982788 13.97492981 C-9.51065019 13.95325714 -9.51065019 13.95325714 -12.67822266 11.62573242 C-14.1328125 9.49609375 -14.1328125 9.49609375 -14.6953125 6.99609375 C-14.1328125 4.49609375 -14.1328125 4.49609375 -12.16845703 2.37084961 C-8.02578497 -0.18758523 -4.77629753 -0.06389744 0 0 Z " fill="#5C5299" transform="translate(37.1328125,148.50390625)"/>
<path d="M0 0 C0.84783051 -0.01283524 1.69566101 -0.02567047 2.56918335 -0.03889465 C3.48688507 -0.04628159 4.40458679 -0.05366852 5.35009766 -0.0612793 C6.76326767 -0.07338692 6.76326767 -0.07338692 8.20498657 -0.08573914 C10.20060381 -0.09958225 12.19624476 -0.11030338 14.19189453 -0.11816406 C17.24508411 -0.13539042 20.29719474 -0.17927585 23.35009766 -0.22338867 C25.28758968 -0.23351431 27.22509092 -0.24203081 29.16259766 -0.2487793 C30.53307755 -0.27504143 30.53307755 -0.27504143 31.9312439 -0.30183411 C38.24938579 -0.28019332 38.24938579 -0.28019332 41.50097656 2.04345703 C42.88916016 4.17700195 42.88916016 4.17700195 42.82666016 6.73950195 C41.83725886 9.31194533 41.05824006 10.50847895 38.88916016 12.17700195 C35.06587238 13.45143121 31.44504098 13.35895514 27.45947266 13.38012695 C26.21845291 13.38867706 26.21845291 13.38867706 24.95236206 13.3973999 C23.20230383 13.40684218 21.45222789 13.41338082 19.70214844 13.41723633 C17.03109584 13.42694042 14.3608134 13.4579698 11.68994141 13.48950195 C9.98812305 13.49603254 8.2862992 13.50128279 6.58447266 13.50512695 C5.78848663 13.51747375 4.99250061 13.52982056 4.1723938 13.5425415 C-0.39706991 13.52427468 -3.41494641 13.16989652 -7.11083984 10.17700195 C-8.22786989 7.27272384 -8.35619695 5.85645239 -7.29833984 2.92700195 C-5.29436363 -0.02622615 -3.35146037 0.04414392 0 0 Z " fill="#6055A1" transform="translate(20.11083984375,125.822998046875)"/>
<path d="M0 0 C2.5 0.5625 2.5 0.5625 4.8125 2.875 C6.5 5.5625 6.5 5.5625 6.5 8.5625 C7.16 8.5625 7.82 8.5625 8.5 8.5625 C8.5 9.2225 8.5 9.8825 8.5 10.5625 C9.16 10.5625 9.82 10.5625 10.5 10.5625 C13.70614467 13.96902872 15.24809374 17.07650257 16.5 21.5625 C17.16 21.5625 17.82 21.5625 18.5 21.5625 C20.48 25.8525 22.46 30.1425 24.5 34.5625 C25.16 34.5625 25.82 34.5625 26.5 34.5625 C26.17 35.8825 25.84 37.2025 25.5 38.5625 C20.55 38.5625 15.6 38.5625 10.5 38.5625 C5.07142857 27.99107143 5.07142857 27.99107143 3.5 22.5625 C2.84 22.5625 2.18 22.5625 1.5 22.5625 C-0.15625 20.69921875 -0.15625 20.69921875 -2 18.25 C-2.6084375 17.44949219 -3.216875 16.64898437 -3.84375 15.82421875 C-7.51081286 10.81660225 -7.51081286 10.81660225 -7.375 7.625 C-6.13626287 3.28942003 -4.499149 1.01230853 0 0 Z " fill="#6156A1" transform="translate(220.5,45.4375)"/>
<path d="M0 0 C6.09127286 6.26047489 6.94300746 11.82415627 7.25 20.3125 C7.98605469 20.2403125 8.72210938 20.168125 9.48046875 20.09375 C10.45628906 20.0009375 11.43210938 19.908125 12.4375 19.8125 C13.40042969 19.7196875 14.36335938 19.626875 15.35546875 19.53125 C18.00187667 19.33125156 20.59760865 19.27370817 23.25 19.3125 C23.58 17.0025 23.91 14.6925 24.25 12.3125 C24.91 12.3125 25.57 12.3125 26.25 12.3125 C27 15.0625 27 15.0625 27.25 18.3125 C25.71875 20.53125 25.71875 20.53125 23.25 22.3125 C19.796875 22.484375 19.796875 22.484375 16 22.0625 C14.73671875 21.93359375 13.4734375 21.8046875 12.171875 21.671875 C11.20765625 21.55328125 10.2434375 21.4346875 9.25 21.3125 C8.92 22.3025 8.59 23.2925 8.25 24.3125 C6.27 23.6525 4.29 22.9925 2.25 22.3125 C1.981875 22.90160156 1.71375 23.49070312 1.4375 24.09765625 C-0.09536182 26.95664523 -2.11717938 29.06813579 -4.3125 31.43359375 C-7.44412543 35.52683243 -8.04192045 39.57329349 -8.375 44.625 C-8.44976562 45.69363281 -8.52453125 46.76226562 -8.6015625 47.86328125 C-8.65054688 48.67152344 -8.69953125 49.47976562 -8.75 50.3125 C-9.41 50.3125 -10.07 50.3125 -10.75 50.3125 C-11.41825625 41.6697192 -10.45391847 35.66912003 -5.75 28.3125 C-5.42 27.9825 -5.09 27.6525 -4.75 27.3125 C-4.03473368 17.98529734 -4.03473368 17.98529734 -6.75 9.3125 C-9.63318775 8.12914605 -9.63318775 8.12914605 -12.75 7.3125 C-15.1875 5.5 -15.1875 5.5 -16.75 3.3125 C-16.8125 0.6875 -16.8125 0.6875 -15.75 -1.6875 C-10.59351413 -5.28141439 -4.90454158 -3.00960506 0 0 Z " fill="#5A5092" transform="translate(125.75,55.6875)"/>
<path d="M0 0 C-0.5625 1.9375 -0.5625 1.9375 -2 4 C-5.25 4.625 -5.25 4.625 -9 5 C-11.01416562 5.62256028 -13.02015519 6.27566653 -15 7 C-15 7.66 -15 8.32 -15 9 C-15.90878906 9.41958984 -15.90878906 9.41958984 -16.8359375 9.84765625 C-24.15518879 13.34963648 -32.81329768 17.54204711 -38 24 C-37.76716851 27.14921909 -37.76716851 27.14921909 -37 30 C-36.01 30 -35.02 30 -34 30 C-34 30.99 -34 31.98 -34 33 C-28.65530536 31.90924599 -25.80032934 30.23181417 -21.80078125 26.578125 C-14.41656792 20.1069272 -1.91089045 13 8 13 C8 13.66 8 14.32 8 15 C7.22398438 15.268125 6.44796875 15.53625 5.6484375 15.8125 C-9.05307718 21.14574637 -24.43718657 28.90161271 -34.4765625 41.15625 C-36 43 -36 43 -38.6875 45.625 C-41.2509667 48.25774958 -43.05053989 50.89530426 -45 54 C-45.8125 52.375 -45.8125 52.375 -46 50 C-44.67738331 48.54834754 -43.35374403 47.09753137 -42.015625 45.66015625 C-40.60104129 43.75985435 -40.60104129 43.75985435 -41.6875 40.125 C-42.120625 39.09375 -42.55375 38.0625 -43 37 C-43.66 37 -44.32 37 -45 37 C-44.67 35.68 -44.34 34.36 -44 33 C-46.73546025 33 -47.52539425 34.09731691 -49.5625 35.875 C-50.18253906 36.40867188 -50.80257812 36.94234375 -51.44140625 37.4921875 C-53.10621453 38.93585161 -53.10621453 38.93585161 -54 41 C-54.66 41 -55.32 41 -56 41 C-50.46316238 28.39792687 -36.21524914 18.30663798 -25 11 C-23.81470703 10.21302734 -23.81470703 10.21302734 -22.60546875 9.41015625 C-16.30885766 5.4124694 -7.62853601 0 0 0 Z " fill="#5E549E" transform="translate(106,16)"/>
<path d="M0 0 C9.9 0 19.8 0 30 0 C24.72727273 7.90909091 24.72727273 7.90909091 22 11 C21.34 11 20.68 11 20 11 C19.67 11.99 19.34 12.98 19 14 C16.4375 15.1875 16.4375 15.1875 14 16 C9.08419924 11.24277346 4.43022305 6.21202712 0 1 C0 0.67 0 0.34 0 0 Z " fill="#3C3271" transform="translate(126,189)"/>
<path d="M0 0 C0.33 0.99 0.66 1.98 1 3 C0.34 3 -0.32 3 -1 3 C-1.33 4.98 -1.66 6.96 -2 9 C-1.05125 9.598125 -0.1025 10.19625 0.875 10.8125 C4 13 4 13 6 16 C8.05925139 16.72382467 8.05925139 16.72382467 10 17 C8.6875 20.4375 8.6875 20.4375 7 24 C3.62231526 25.12589491 0.99187928 25.13294275 -2.5625 25.125 C-3.71878906 25.12757812 -4.87507813 25.13015625 -6.06640625 25.1328125 C-9 25 -9 25 -11 24 C-9.69286365 15.43099507 -6.23039752 6.23039752 0 0 Z " fill="#60559E" transform="translate(46,61)"/>
<path d="M0 0 C0.66 1.98 1.32 3.96 2 6 C-1.27708863 9.67033927 -4.71522208 11.69281189 -9 14 C-9.556875 13.319375 -10.11375 12.63875 -10.6875 11.9375 C-11.450625 11.298125 -12.21375 10.65875 -13 10 C-15.70705512 10.14025199 -15.70705512 10.14025199 -18 11 C-18.33 11.99 -18.66 12.98 -19 14 C-20 11 -20 11 -19.03125 8.84375 C-13.90868321 1.00308655 -9.77726057 -2.19489523 0 0 Z " fill="#5A4F91" transform="translate(171,53)"/>
<path d="M0 0 C0.84783051 -0.01283524 1.69566101 -0.02567047 2.56918335 -0.03889465 C3.48688507 -0.04628159 4.40458679 -0.05366852 5.35009766 -0.0612793 C6.76326767 -0.07338692 6.76326767 -0.07338692 8.20498657 -0.08573914 C10.20060381 -0.09958225 12.19624476 -0.11030338 14.19189453 -0.11816406 C17.24508411 -0.13539042 20.29719474 -0.17927585 23.35009766 -0.22338867 C25.28758968 -0.23351431 27.22509092 -0.24203081 29.16259766 -0.2487793 C30.53307755 -0.27504143 30.53307755 -0.27504143 31.9312439 -0.30183411 C38.24938579 -0.28019332 38.24938579 -0.28019332 41.50097656 2.04345703 C42.88916016 4.17700195 42.88916016 4.17700195 42.82666016 6.73950195 C41.83725886 9.31194533 41.05824006 10.50847895 38.88916016 12.17700195 C35.06587238 13.45143121 31.44504098 13.35895514 27.45947266 13.38012695 C26.21845291 13.38867706 26.21845291 13.38867706 24.95236206 13.3973999 C23.20230383 13.40684218 21.45222789 13.41338082 19.70214844 13.41723633 C17.03109584 13.42694042 14.3608134 13.4579698 11.68994141 13.48950195 C9.98812305 13.49603254 8.2862992 13.50128279 6.58447266 13.50512695 C5.78848663 13.51747375 4.99250061 13.52982056 4.1723938 13.5425415 C-0.39706991 13.52427468 -3.41494641 13.16989652 -7.11083984 10.17700195 C-8.22786989 7.27272384 -8.35619695 5.85645239 -7.29833984 2.92700195 C-5.29436363 -0.02622615 -3.35146037 0.04414392 0 0 Z M-6.11083984 4.17700195 C-6.01972047 6.71651739 -6.01972047 6.71651739 -5.11083984 9.17700195 C-1.21000732 11.77755697 2.08393701 11.46474181 6.60791016 11.44262695 C7.46219604 11.44454041 8.31648193 11.44645386 9.19665527 11.44842529 C11.00220026 11.44978582 12.80775508 11.4460986 14.61328125 11.43774414 C17.37864126 11.42704266 20.14335163 11.43764379 22.90869141 11.45043945 C24.66259909 11.44911783 26.41650637 11.44655539 28.17041016 11.44262695 C28.99859253 11.44667542 29.8267749 11.45072388 30.68005371 11.45489502 C34.59327566 11.42289318 36.56016156 11.39633435 39.88916016 9.17700195 C39.88916016 8.18700195 39.88916016 7.19700195 39.88916016 6.17700195 C40.54916016 6.17700195 41.20916016 6.17700195 41.88916016 6.17700195 C41.88916016 5.51700195 41.88916016 4.85700195 41.88916016 4.17700195 C38.79510096 2.11429582 38.13400192 1.92562861 34.63305664 1.91821289 C33.77884628 1.91190857 32.92463593 1.90560425 32.04454041 1.89910889 C31.12572586 1.90315735 30.20691132 1.90720581 29.26025391 1.91137695 C28.31481216 1.9094635 27.36937042 1.90755005 26.39527893 1.90557861 C24.39722426 1.90421777 22.39916072 1.90790717 20.40112305 1.91625977 C17.33508563 1.92697251 14.26963258 1.91635491 11.20361328 1.90356445 C9.26415886 1.90488583 7.3247048 1.90744778 5.38525391 1.91137695 C4.46441513 1.90732849 3.54357635 1.90328003 2.59483337 1.89910889 C1.31824608 1.90856537 1.31824608 1.90856537 0.01586914 1.91821289 C-0.7345314 1.91980408 -1.48493195 1.92139526 -2.2580719 1.92303467 C-4.35748451 2.02062827 -4.35748451 2.02062827 -6.11083984 4.17700195 Z " fill="#564C8E" transform="translate(20.11083984375,125.822998046875)"/>
<path d="M0 0 C3.28540815 0.10413941 5.70740598 0.26530803 8.33007812 2.35668945 C12.20468359 6.93721619 14.77403156 12.36237789 16.66210938 18.02661133 C16.00210938 18.02661133 15.34210937 18.02661133 14.66210938 18.02661133 C14.66210938 17.36661133 14.66210938 16.70661133 14.66210938 16.02661133 C14.00210938 16.02661133 13.34210937 16.02661133 12.66210938 16.02661133 C11.72589977 14.03568457 10.81339193 12.03359103 9.91210938 10.02661133 C8.21531211 6.64181709 8.21531211 6.64181709 5.66210938 4.02661133 C0.85123023 2.95402188 -3.48887238 3.3002674 -8.33789062 4.02661133 C-7.40794945 5.96775066 -6.46864533 7.90440642 -5.52539062 9.83911133 C-5.00332031 10.91805664 -4.48125 11.99700195 -3.94335938 13.10864258 C-2.55862775 15.94629381 -2.55862775 15.94629381 -0.82617188 17.53833008 C0.66210938 19.02661133 0.66210938 19.02661133 1.99414062 21.78442383 C3.98888934 25.66180424 6.48972758 28.63950099 9.34960938 31.90161133 C9.86072266 32.49458008 10.37183594 33.08754883 10.8984375 33.69848633 C12.1474785 35.14597309 13.40402891 36.58697426 14.66210938 38.02661133 C14.33210938 38.68661133 14.00210938 39.34661133 13.66210938 40.02661133 C3.03333398 30.16107246 -8.36247836 16.57307127 -11.33789062 2.02661133 C-8.89110751 -0.42017179 -3.3503219 0.12770128 0 0 Z " fill="#4B4375" transform="translate(46.337890625,175.973388671875)"/>
<path d="M0 0 C0.67546875 0.39316406 1.3509375 0.78632813 2.046875 1.19140625 C19.18980258 5.9087946 39.55340271 5.34126599 56.796875 1.59375 C59.46229415 1.11712123 61.44380191 1.5220446 64.046875 2.19140625 C48.00988025 11.79689789 21.30625387 8.11958464 4.046875 4.19140625 C0.66375548 3.31400843 -2.65872819 2.35851668 -5.953125 1.19140625 C-2.49381167 -1.03243803 -2.49381167 -1.03243803 0 0 Z " fill="#5A5186" transform="translate(108.953125,241.80859375)"/>
<path d="M0 0 C1.26108078 0.0001133 1.26108078 0.0001133 2.54763794 0.00022888 C3.91020218 0.00797081 3.91020218 0.00797081 5.30029297 0.01586914 C6.22969696 0.01728409 7.15910095 0.01869904 8.1166687 0.02015686 C11.09197171 0.02576486 14.06720011 0.03831871 17.04248047 0.05102539 C19.0568023 0.05603936 21.07112531 0.06060245 23.08544922 0.06469727 C28.02948849 0.07573689 32.97347182 0.0930069 37.91748047 0.11352539 C39.49951172 3.42993164 39.49951172 3.42993164 40.91748047 7.11352539 C39.60498047 10.05102539 39.60498047 10.05102539 37.91748047 12.11352539 C37.25748047 11.45352539 36.59748047 10.79352539 35.91748047 10.11352539 C36.24748047 9.12352539 36.57748047 8.13352539 36.91748047 7.11352539 C36.42248047 4.63852539 36.42248047 4.63852539 35.91748047 2.11352539 C22.38748047 2.44352539 8.85748047 2.77352539 -5.08251953 3.11352539 C-5.41251953 4.10352539 -5.74251953 5.09352539 -6.08251953 6.11352539 C-6.74251953 5.78352539 -7.40251953 5.45352539 -8.08251953 5.11352539 C-6.10019716 0.72409729 -4.75107639 -0.01422478 0 0 Z " fill="#544B83" transform="translate(31.08251953125,101.886474609375)"/>
<path d="M0 0 C2.5 2.125 2.5 2.125 4 4 C0.97580475 3.41196203 -2.01758453 2.77321882 -5 2 C-5 2.99 -5 3.98 -5 5 C-4.34 5.66 -3.68 6.32 -3 7 C-0.99191536 9.00808464 -0.72891244 12.32732107 0 15 C-0.66 15.66 -1.32 16.32 -2 17 C-2.20625 16.05125 -2.4125 15.1025 -2.625 14.125 C-3.67733074 10.73637971 -3.67733074 10.73637971 -6.875 9.875 C-7.90625 9.58625 -8.9375 9.2975 -10 9 C-12.4375 7.1875 -12.4375 7.1875 -14 5 C-14.0625 2.375 -14.0625 2.375 -13 0 C-8.74429508 -2.96609737 -4.51457537 -1.88500016 0 0 Z " fill="#564C89" transform="translate(123,54)"/>
<path d="M0 0 C0.87411026 -0.00524185 1.74822052 -0.0104837 2.64881897 -0.0158844 C4.49723244 -0.02230683 6.34568677 -0.02096473 8.1940918 -0.01245117 C11.02141209 -0.00394759 13.84670786 -0.03268773 16.67382812 -0.06445312 C18.47005148 -0.0660654 20.26627841 -0.0654871 22.0625 -0.0625 C23.3298423 -0.07935097 23.3298423 -0.07935097 24.62278748 -0.09654236 C30.46581256 -0.02723277 30.46581256 -0.02723277 33.64672852 2.29272461 C35.39759368 4.87615665 35.43766964 6.37347324 35.09765625 9.43359375 C32.31373795 8.0416346 32.11866628 6.27783596 31.09765625 3.43359375 C25.74116845 3.24127254 20.38446552 3.06255934 15.02709961 2.89648438 C13.20438444 2.83805882 11.3817848 2.7759057 9.55932617 2.70996094 C6.94080642 2.61585677 4.32216479 2.53513367 1.703125 2.45703125 C0.88740524 2.4248349 0.07168549 2.39263855 -0.76875305 2.35946655 C-5.6248425 2.2237599 -5.6248425 2.2237599 -9.90234375 4.43359375 C-10.15255945 7.51725246 -10.15255945 7.51725246 -9.90234375 10.43359375 C-9.24234375 10.76359375 -8.58234375 11.09359375 -7.90234375 11.43359375 C-7.90234375 12.09359375 -7.90234375 12.75359375 -7.90234375 13.43359375 C-11.77734375 11.55859375 -11.77734375 11.55859375 -12.90234375 10.43359375 C-12.435508 4.13131108 -12.435508 4.13131108 -10.60227966 1.73228455 C-7.56226046 -0.5901824 -3.68057406 -0.01275781 0 0 Z " fill="#4F487C" transform="translate(223.90234375,148.56640625)"/>
<path d="M0 0 C-0.5625 1.9375 -0.5625 1.9375 -2 4 C-5.25 4.625 -5.25 4.625 -9 5 C-11.01416562 5.62256028 -13.02015519 6.27566653 -15 7 C-15 7.66 -15 8.32 -15 9 C-15.90878906 9.41958984 -15.90878906 9.41958984 -16.8359375 9.84765625 C-25.12014055 13.81132878 -32.54511769 18.42869696 -39 25 C-40.26374254 26.07092409 -41.53464033 27.13346097 -42.8125 28.1875 C-46.662216 31.49753619 -49.60075244 35.16244351 -52.5546875 39.27734375 C-53.03164063 39.84582031 -53.50859375 40.41429687 -54 41 C-54.66 41 -55.32 41 -56 41 C-50.46316238 28.39792687 -36.21524914 18.30663798 -25 11 C-23.81470703 10.21302734 -23.81470703 10.21302734 -22.60546875 9.41015625 C-16.30885766 5.4124694 -7.62853601 0 0 0 Z " fill="#4D4576" transform="translate(106,16)"/>
<path d="M0 0 C14.66571944 10.19007754 31.08391501 27.98600904 35 46 C34.01 46.495 34.01 46.495 33 47 C32.16235732 45.04350603 31.33000941 43.08474444 30.5 41.125 C30.0359375 40.03445312 29.571875 38.94390625 29.09375 37.8203125 C28 35 28 35 28 33 C27.34 33 26.68 33 26 33 C23 27.25 23 27.25 23 25 C22.01 24.67 21.02 24.34 20 24 C20 23.34 20 22.68 20 22 C19.34 22 18.68 22 18 22 C18 21.34 18 20.68 18 20 C17.34 20 16.68 20 16 20 C15.2575 18.4840625 15.2575 18.4840625 14.5 16.9375 C11.87211325 12.30115695 8.06326149 9.34719491 4 6 C1.5 3.6875 1.5 3.6875 0 2 C0 1.34 0 0.68 0 0 Z " fill="#554D81" transform="translate(211,34)"/>
<path d="M0 0 C0 0.66 0 1.32 0 2 C-0.77601562 2.268125 -1.55203125 2.53625 -2.3515625 2.8125 C-17.37242862 8.26159702 -33.06591283 16.19025602 -43 29 C-43.33 28.01 -43.66 27.02 -44 26 C-33.84975212 16.14226647 -24.50507298 8.78939052 -11.4453125 3.078125 C-9.89036506 2.39255712 -8.35477437 1.65979012 -6.8515625 0.8671875 C-4.48548232 -0.24097664 -2.57969653 -0.14331647 0 0 Z " fill="#4D457B" transform="translate(114,29)"/>
<path d="M0 0 C1.05316406 0.33773437 2.10632813 0.67546875 3.19140625 1.0234375 C21.58285779 6.77237675 38.81046314 7.75877916 58 6 C57.67 6.99 57.34 7.98 57 9 C14.55877124 9.81859937 14.55877124 9.81859937 0 2 C0 1.34 0 0.68 0 0 Z " fill="#554E80" transform="translate(103,224)"/>
<path d="M0 0 C1.16595703 0.0628418 1.16595703 0.0628418 2.35546875 0.12695312 C3.54462891 0.16079102 3.54462891 0.16079102 4.7578125 0.1953125 C6.70784495 0.25404842 8.65690187 0.34372659 10.60546875 0.43945312 C10.09036575 5.75400791 8.2438217 9.34568434 5.54296875 13.81445312 C5.16591797 14.45511719 4.78886719 15.09578125 4.40039062 15.75585938 C3.47707258 17.32199378 2.54241482 18.88143347 1.60546875 20.43945312 C0.94546875 19.77945313 0.28546875 19.11945313 -0.39453125 18.43945312 C0.54161442 16.70955287 1.47944833 14.98056616 2.41796875 13.25195312 C2.94003906 12.28902344 3.46210938 11.32609375 4 10.33398438 C5.47771027 7.66979141 7.03802454 5.05186014 8.60546875 2.43945312 C3.65546875 2.43945312 -1.29453125 2.43945312 -6.39453125 2.43945312 C-7.05453125 4.08945313 -7.71453125 5.73945313 -8.39453125 7.43945312 C-10.51953125 9.75195312 -10.51953125 9.75195312 -12.39453125 11.43945312 C-10.29104482 3.90196007 -8.09508872 -0.17297198 0 0 Z " fill="#51477A" transform="translate(236.39453125,176.560546875)"/>
<path d="M0 0 C0.556875 0.309375 1.11375 0.61875 1.6875 0.9375 C6.49747191 3.14748709 11.42280988 3.16718913 16.63671875 3.24609375 C18.11524107 3.27899755 19.59375655 3.31220972 21.07226562 3.34570312 C23.38968735 3.39329942 25.70707475 3.43782921 28.0246582 3.47680664 C30.27061495 3.51639237 32.51604836 3.56792436 34.76171875 3.62109375 C35.80545906 3.63371498 35.80545906 3.63371498 36.87028503 3.64659119 C41.77321303 3.77321303 41.77321303 3.77321303 44 6 C38.53743725 6.12381149 33.07569512 6.21443826 27.61206055 6.2746582 C25.75449391 6.29976702 23.89702573 6.33386134 22.03979492 6.37719727 C19.36612642 6.43801124 16.69376635 6.4662452 14.01953125 6.48828125 C12.7786248 6.52699089 12.7786248 6.52699089 11.51264954 6.56648254 C7.08875989 6.56862329 5.5131433 6.41336884 1.9362793 3.53198242 C0 1 0 1 0 0 Z " fill="#554F8B" transform="translate(23,109)"/>
<path d="M0 0 C0 3 0 3 -1.58984375 4.94140625 C-4.38891383 7.3321841 -7.35813036 9.15850732 -10.5625 10.9375 C-11.18092773 11.28449951 -11.79935547 11.63149902 -12.43652344 11.98901367 C-32.31313303 23 -32.31313303 23 -43 23 C-43 22.34 -43 21.68 -43 21 C-42.13761719 20.82726562 -41.27523437 20.65453125 -40.38671875 20.4765625 C-25.65933199 17.08630874 -11.26621857 10.21741143 0 0 Z " fill="#51497C" transform="translate(205,208)"/>
<path d="M0 0 C1.485 0.495 1.485 0.495 3 1 C-1.99895975 7.65456379 -7.33730895 13.90171733 -13 20 C-13.53238281 20.57492188 -14.06476563 21.14984375 -14.61328125 21.7421875 C-15.69668307 22.87352745 -16.84093883 23.94630803 -18 25 C-18.66 25 -19.32 25 -20 25 C-20 25.66 -20 26.32 -20 27 C-21.96875 28.5078125 -21.96875 28.5078125 -24.5 30.125 C-25.3353125 30.66382813 -26.170625 31.20265625 -27.03125 31.7578125 C-27.6809375 32.16773438 -28.330625 32.57765625 -29 33 C-29.66 32.34 -30.32 31.68 -31 31 C-30.360625 30.896875 -29.72125 30.79375 -29.0625 30.6875 C-28.0415625 30.3471875 -28.0415625 30.3471875 -27 30 C-26.67 29.01 -26.34 28.02 -26 27 C-24.01399663 25.6459068 -22.01182457 24.31542376 -20 23 C-19.0925 22.0925 -18.185 21.185 -17.25 20.25 C-16.5075 19.5075 -15.765 18.765 -15 18 C-14.34 18 -13.68 18 -13 18 C-12.731875 17.360625 -12.46375 16.72125 -12.1875 16.0625 C-11 14 -11 14 -8 13 C-6.99083967 11.23408113 -6.99083967 11.23408113 -6 9 C-4.68568305 6.98745218 -3.35278115 4.98689731 -2 3 C-1.34 2.01 -0.68 1.02 0 0 Z " fill="#554C82" transform="translate(234,197)"/>
<path d="M0 0 C0.66 0 1.32 0 2 0 C1.67 2.31 1.34 4.62 1 7 C4.91314034 9.60876023 8.21748425 9.26967935 12.75390625 9.23046875 C13.61056381 9.23001053 14.46722137 9.22955231 15.34983826 9.2290802 C17.15959052 9.22606053 18.96934024 9.21818273 20.77905273 9.20581055 C23.55526899 9.18754757 26.33115181 9.18530095 29.10742188 9.18554688 C30.86458623 9.1806318 32.62174831 9.17480353 34.37890625 9.16796875 C35.21224991 9.16685593 36.04559357 9.1657431 36.90419006 9.16459656 C41.08566596 9.24034593 41.08566596 9.24034593 45 8 C45.33 7.01 45.66 6.02 46 5 C46.66 5 47.32 5 48 5 C48.33 4.34 48.66 3.68 49 3 C48.5047783 6.66464055 47.9791794 8.70832354 45 11 C41.17671223 12.27442926 37.55588082 12.18195319 33.5703125 12.203125 C32.32929276 12.21167511 32.32929276 12.21167511 31.0632019 12.22039795 C29.31314368 12.22984023 27.56306773 12.23637887 25.81298828 12.24023438 C23.14193569 12.24993847 20.47165325 12.28096785 17.80078125 12.3125 C16.09896289 12.31903058 14.39713904 12.32428084 12.6953125 12.328125 C11.89932648 12.3404718 11.10334045 12.3528186 10.28323364 12.36553955 C5.71376993 12.34727273 2.69589344 11.99289456 -1 9 C-2.14880448 6.01310836 -2.26807437 4.66125011 -1.0625 1.6875 C-0.711875 1.130625 -0.36125 0.57375 0 0 Z " fill="#5B528E" transform="translate(14,127)"/>
<path d="M0 0 C0.66 0 1.32 0 2 0 C2 0.99 2 1.98 2 3 C1.34 3 0.68 3 0 3 C0 3.66 0 4.32 0 5 C0.556875 5.226875 1.11375 5.45375 1.6875 5.6875 C8.7276607 9.68326689 11.56536431 16.09832805 13.75 23.5625 C14.10834189 27.05633346 14.05952139 30.48823816 14 34 C13.01 34.495 13.01 34.495 12 35 C11.89042969 34.2265625 11.78085938 33.453125 11.66796875 32.65625 C10.05738627 22.07616347 8.33876777 15.81383678 0.7421875 8.078125 C-1.03509745 5.95813488 -1.80355413 4.75024218 -2 2 C-1.34 1.34 -0.68 0.68 0 0 Z " fill="#433B77" transform="translate(160,116)"/>
<path d="M0 0 C16.14082541 3.00772325 30.1979518 7.94240587 44 17 C43.67 17.66 43.34 18.32 43 19 C41.64551302 18.25057863 40.29143078 17.50042574 38.9375 16.75 C38.18339844 16.33234375 37.42929688 15.9146875 36.65234375 15.484375 C34.67872802 14.37984779 32.737864 13.21639163 30.81640625 12.0234375 C26.45140191 9.52678952 21.81696918 8.23381668 17 6.875 C16.13632813 6.62363281 15.27265625 6.37226563 14.3828125 6.11328125 C11.92439359 5.39966725 9.46290239 4.6979594 7 4 C5.6249249 3.60703355 4.24991548 3.2138371 2.875 2.8203125 C1.92625 2.54960937 0.9775 2.27890625 0 2 C0 1.34 0 0.68 0 0 Z " fill="#4E4579" transform="translate(159,11)"/>
<path d="M0 0 C0.99 0 1.98 0 3 0 C3 0.66 3 1.32 3 2 C2.01 2.495 2.01 2.495 1 3 C1 4.98 1 6.96 1 9 C9.67973601 11.31965226 18.22673169 11.23331608 27.125 11.125 C28.57291044 11.11494507 30.02082768 11.10582368 31.46875 11.09765625 C34.97931037 11.07585344 38.48961028 11.04146381 42 11 C42 11.66 42 12.32 42 13 C36.3766798 13.09892174 30.75386667 13.17149342 25.12988281 13.21972656 C23.21703265 13.23983452 21.30424389 13.26712507 19.39160156 13.30175781 C16.64112189 13.35031249 13.89145523 13.37297658 11.140625 13.390625 C10.28631897 13.41127014 9.43201294 13.43191528 8.55181885 13.45318604 C2.615557 13.45542642 2.615557 13.45542642 -0.55834961 11.10717773 C-2 9 -2 9 -2.20703125 6.89453125 C-1.11111111 1.11111111 -1.11111111 1.11111111 0 0 Z " fill="#554C7D" transform="translate(213,102)"/>
<path d="M0 0 C6.78082192 5.42465753 6.78082192 5.42465753 9 9 C9 9.66 9 10.32 9 11 C9.66 11 10.32 11 11 11 C12 13 13 15 14 17 C14.35964844 17.69609375 14.71929687 18.3921875 15.08984375 19.109375 C15.63318359 20.16898438 15.63318359 20.16898438 16.1875 21.25 C16.53167969 21.91515625 16.87585938 22.5803125 17.23046875 23.265625 C18 25 18 25 18 27 C20.45873768 26.85941524 22.91685175 26.71277001 25.375 26.5625 C26.42300781 26.50352539 26.42300781 26.50352539 27.4921875 26.44335938 C31.37360492 26.25719866 31.37360492 26.25719866 35 25 C34.67 26.32 34.34 27.64 34 29 C22.39288074 30.04200275 22.39288074 30.04200275 17 28 C13.57198786 24.00925695 11.91351273 19.79051038 9.9375 14.96826172 C7.9419583 10.7786635 4.74325107 7.52742393 1.6875 4.07421875 C0 2 0 2 0 0 Z " fill="#4A446E" transform="translate(213,57)"/>
<path d="M0 0 C0.495 0.99 0.495 0.99 1 2 C-0.47169811 5.73584906 -0.47169811 5.73584906 -3 7 C-6.03892708 7.11150479 -9.05424414 7.16412607 -12.09375 7.16796875 C-13.4474469 7.17296135 -13.4474469 7.17296135 -14.82849121 7.17805481 C-16.73835744 7.18312194 -18.64823253 7.1854632 -20.55810547 7.18530273 C-23.48810301 7.18749111 -26.41772528 7.20565418 -29.34765625 7.22460938 C-31.20051954 7.22754289 -33.05338463 7.22952797 -34.90625 7.23046875 C-36.22659241 7.24124702 -36.22659241 7.24124702 -37.5736084 7.25224304 C-43.77117452 7.22882548 -43.77117452 7.22882548 -46 5 C-39.61996047 3.87411067 -39.61996047 3.87411067 -36.70239258 4.46655273 C-33.40226632 5.11799152 -30.31285213 5.11196958 -26.94921875 5.09765625 C-25.96100883 5.09553383 -25.96100883 5.09553383 -24.95283508 5.09336853 C-22.86434238 5.087805 -20.77595989 5.07525947 -18.6875 5.0625 C-17.26497551 5.05748028 -15.84244934 5.0529182 -14.41992188 5.04882812 C-10.94657923 5.03784757 -7.47330039 5.02060835 -4 5 C-4 4.01 -4 3.02 -4 2 C-2.68 1.34 -1.36 0.68 0 0 Z " fill="#5A518C" transform="translate(71,155)"/>
<path d="M0 0 C3.55060608 0.60867533 6.83461241 1.24145134 10 3 C10.8125 5.625 10.8125 5.625 11 8 C10.01 8.66 9.02 9.32 8 10 C7.01 11.485 7.01 11.485 6 13 C5.34 11.35 4.68 9.7 4 8 C3.01 8 2.02 8 1 8 C0.2341972 5.22396483 0 2.89326812 0 0 Z " fill="#6256A1" transform="translate(117,55)"/>
<path d="M0 0 C2.3431213 0.25561323 4.67843403 0.59270772 7 1 C8.39935013 3.79870027 8.25265405 5.90498792 8 9 C6.46722274 11.03541161 5.56210501 11.88537162 3.04475403 12.39872742 C1.93555855 12.415382 1.93555855 12.415382 0.80395508 12.43237305 C-0.45701241 12.46206429 -0.45701241 12.46206429 -1.74345398 12.49235535 C-2.64666885 12.49874527 -3.54988373 12.50513519 -4.48046875 12.51171875 C-5.40845779 12.52966995 -6.33644684 12.54762115 -7.29255676 12.56611633 C-10.25749157 12.62031291 -13.22226455 12.654145 -16.1875 12.6875 C-18.19728819 12.72066482 -20.207055 12.75515369 -22.21679688 12.79101562 C-27.14441465 12.87604479 -32.07198364 12.94281138 -37 13 C-37 12.34 -37 11.68 -37 11 C-35.83952148 10.98018066 -34.67904297 10.96036133 -33.48339844 10.93994141 C-29.17442266 10.86382088 -24.86578172 10.77511334 -20.55712891 10.68261719 C-18.69293838 10.6443541 -16.8286747 10.60949654 -14.96435547 10.578125 C-12.28326284 10.53241644 -9.60267267 10.47443178 -6.921875 10.4140625 C-6.08944275 10.40251129 -5.2570105 10.39096008 -4.39935303 10.37905884 C1.07879608 10.27403199 1.07879608 10.27403199 6 8 C6 6.02 6 4.04 6 2 C4.02 1.67 2.04 1.34 0 1 C0 0.67 0 0.34 0 0 Z " fill="#595284" transform="translate(263,126)"/>
<path d="M0 0 C3.69673925 3.56471285 7.09010507 7.03417763 9.265625 11.734375 C11.31353051 15.59034124 13.82262947 18.60719929 16.6875 21.875 C17.19861328 22.46796875 17.70972656 23.0609375 18.23632812 23.671875 C19.48536912 25.11936176 20.74191954 26.56036293 22 28 C21.67 28.66 21.34 29.32 21 30 C12.79302385 22.38235458 4.9683776 13.12784665 0 3 C0 2.01 0 1.02 0 0 Z " fill="#554D7F" transform="translate(39,186)"/>
<path d="M0 0 C3 2 3 2 3.6875 4.625 C3.790625 5.40875 3.89375 6.1925 4 7 C3.40316406 7.10183594 2.80632812 7.20367187 2.19140625 7.30859375 C-1.71691998 8.54170203 -3.74348539 11.71320001 -6 15 C-8.40473964 19.64856734 -9.39579765 23.72269795 -9 29 C-9.66 29 -10.32 29 -11 29 C-12.514714 22.70811109 -11.78343204 19.08281929 -8.6796875 13.41015625 C-6.0178715 9.59075981 -2.70614403 6.77730893 1 4 C0.67 2.68 0.34 1.36 0 0 Z " fill="#4C3F78" transform="translate(121,116)"/>
<path d="M0 0 C0.66 0 1.32 0 2 0 C1.835 0.61875 1.67 1.2375 1.5 1.875 C0.28223287 9.48604456 0.16009953 14.76917555 4.75390625 21.171875 C6.42025645 23.61655178 7.22012175 26.1640791 8 29 C7.34 29.33 6.68 29.66 6 30 C3.8480563 26.77208445 3.79913557 25.71599191 4 22 C3.34 22 2.68 22 2 22 C-2.70854744 17.15296587 -2.41143432 12.47135515 -2.3359375 5.92578125 C-2 3 -2 3 0 0 Z " fill="#585088" transform="translate(160,67)"/>
<path d="M0 0 C0.66 0 1.32 0 2 0 C2.75 2.75 2.75 2.75 3 6 C1.46875 8.21875 1.46875 8.21875 -1 10 C-4.453125 10.171875 -4.453125 10.171875 -8.25 9.75 C-9.51328125 9.62109375 -10.7765625 9.4921875 -12.078125 9.359375 C-13.52445313 9.18148437 -13.52445313 9.18148437 -15 9 C-15.33 9.99 -15.66 10.98 -16 12 C-16.99 11.34 -17.98 10.68 -19 10 C-18.67 7.36 -18.34 4.72 -18 2 C-17.67 2 -17.34 2 -17 2 C-17 3.98 -17 5.96 -17 8 C-16.26394531 7.9278125 -15.52789062 7.855625 -14.76953125 7.78125 C-13.79371094 7.6884375 -12.81789062 7.595625 -11.8125 7.5 C-10.84957031 7.4071875 -9.88664063 7.314375 -8.89453125 7.21875 C-6.24812333 7.01875156 -3.65239135 6.96120817 -1 7 C-0.67 4.69 -0.34 2.38 0 0 Z " fill="#4F4782" transform="translate(150,68)"/>
<path d="M0 0 C1.75 0.625 1.75 0.625 4 2 C4.61875 3.50046875 4.61875 3.50046875 5.25 5.03125 C6.23921562 6.7595372 6.23921562 6.7595372 8 8 C12.73377042 8.93749679 17.43670022 8.88453129 22.25 8.875 C24.22613281 8.9059375 24.22613281 8.9059375 26.2421875 8.9375 C29.49542113 8.98464831 32.74649409 9.00443602 36 9 C36 8.34 36 7.68 36 7 C36.99 7.33 37.98 7.66 39 8 C35.31790334 11.68209666 29.40321125 10.57346278 24.41625977 10.64526367 C23.02216469 10.67325235 21.62831548 10.72087682 20.2355957 10.78881836 C8.68569313 11.35031963 8.68569313 11.35031963 4.48193359 7.98291016 C0 2.28878903 0 2.28878903 0 0 Z " fill="#544988" transform="translate(119,179)"/>
<path d="M0 0 C3 1 3 1 4.3125 3.4375 C6.47597791 6.72278127 8.35895831 6.8127038 12 8 C12.875 10.125 12.875 10.125 13 12 C12.01 12.33 11.02 12.66 10 13 C10 13.66 10 14.32 10 15 C9.34 15 8.68 15 8 15 C7.34 13.35 6.68 11.7 6 10 C5.34 10 4.68 10 4 10 C3.32845067 8.71086513 2.66291141 7.41859796 2 6.125 C1.62875 5.40570313 1.2575 4.68640625 0.875 3.9453125 C0 2 0 2 0 0 Z " fill="#584F8E" transform="translate(116,107)"/>
<path d="M0 0 C0.66 0.66 1.32 1.32 2 2 C4.18745776 2.77039001 6.40008429 3.47061303 8.625 4.125 C10.40777344 4.65480469 10.40777344 4.65480469 12.2265625 5.1953125 C13.14179688 5.46085937 14.05703125 5.72640625 15 6 C15 6.66 15 7.32 15 8 C15.66 8 16.32 8 17 8 C17 8.66 17 9.32 17 10 C18.65 10 20.3 10 22 10 C22.33 11.32 22.66 12.64 23 14 C22.48091064 13.76812988 21.96182129 13.53625977 21.42700195 13.29736328 C19.05594299 12.23891621 16.68422843 11.18194605 14.3125 10.125 C13.49587891 9.76019531 12.67925781 9.39539062 11.83789062 9.01953125 C7.91803778 7.27384779 4.0030356 5.54903618 0 4 C0 2.68 0 1.36 0 0 Z " fill="#5B548B" transform="translate(169,27)"/>
<path d="M0 0 C0 0.66 0 1.32 0 2 C-1.30324219 2.48919922 -1.30324219 2.48919922 -2.6328125 2.98828125 C-3.78523438 3.42527344 -4.93765625 3.86226562 -6.125 4.3125 C-7.83042969 4.95638672 -7.83042969 4.95638672 -9.5703125 5.61328125 C-13.01427259 6.94793134 -13.01427259 6.94793134 -16.25 8.65625 C-19.12934324 10.06320181 -20.84529624 10.27835621 -24 10 C-21.00377807 7.57616952 -18.02486813 5.98205073 -14.5 4.4375 C-10.62118495 2.73546435 -10.62118495 2.73546435 -6.828125 0.85546875 C-4.47515943 -0.24559847 -2.56456228 -0.14247568 0 0 Z " fill="#595087" transform="translate(114,29)"/>
<path d="M0 0 C0.33 1.32 0.66 2.64 1 4 C0.34 4 -0.32 4 -1 4 C-0.62875 4.763125 -0.2575 5.52625 0.125 6.3125 C0.41375 7.199375 0.7025 8.08625 1 9 C0.01 10.485 0.01 10.485 -1 12 C-1.33 11.34 -1.66 10.68 -2 10 C-4.37948772 10.17625835 -5.70225849 10.69719773 -7.37890625 12.40234375 C-8.62115486 13.90649092 -9.81376056 15.45129851 -11 17 C-11.66 16.34 -12.32 15.68 -13 15 C-12.48050781 14.50371094 -11.96101562 14.00742188 -11.42578125 13.49609375 C-7.07159457 9.25458473 -3.37180778 5.05771167 0 0 Z " fill="#4E477D" transform="translate(223,188)"/>
<path d="M0 0 C0.33 0.99 0.66 1.98 1 3 C0.34 3 -0.32 3 -1 3 C-1.1134375 3.57363281 -1.226875 4.14726563 -1.34375 4.73828125 C-2.063935 7.22034742 -3.13032016 9.00158653 -4.5 11.1875 C-7.1973759 15.86709739 -7.74469505 19.63859615 -8 25 C-8.99 24.67 -9.98 24.34 -11 24 C-9.69286365 15.43099507 -6.23039752 6.23039752 0 0 Z " fill="#504A75" transform="translate(46,61)"/>
<path d="M0 0 C2 3 2 3 2 5 C7.73866286 4.75873003 7.73866286 4.75873003 12.5 1.9375 C12.995 1.298125 13.49 0.65875 14 0 C14.33 0.66 14.66 1.32 15 2 C15.66 2 16.32 2 17 2 C16.67 3.32 16.34 4.64 16 6 C11.05 6 6.1 6 1 6 C0.34 4.35 -0.32 2.7 -1 1 C-0.67 0.67 -0.34 0.34 0 0 Z " fill="#5E5494" transform="translate(230,78)"/>
<path d="M0 0 C0.66 1.98 1.32 3.96 2 6 C-0.52788007 8.79872437 -2.20411134 10.45773019 -6 11 C-4.69791667 9.53515625 -3.39583333 8.0703125 -2.09375 6.60546875 C-0.71848759 4.910552 -0.71848759 4.910552 -1 2 C-4.3 1.67 -7.6 1.34 -11 1 C-6.46780033 -1.26609984 -4.82227075 -0.92735976 0 0 Z " fill="#52477B" transform="translate(171,53)"/>
<path d="M0 0 C0.33 0.66 0.66 1.32 1 2 C1.66 2 2.32 2 3 2 C3.93310768 3.15844019 4.82290479 4.35206671 5.6875 5.5625 C7.19332881 7.53036536 7.19332881 7.53036536 9 9 C12.80001865 9.1143337 12.80001865 9.1143337 16 8 C15.67 8.99 15.34 9.98 15 11 C12.4375 12.1875 12.4375 12.1875 10 13 C6.08060535 9.19588166 2.50897269 5.18423892 -1 1 C-0.67 0.67 -0.34 0.34 0 0 Z " fill="#2E2756" transform="translate(130,192)"/>
<path d="M0 0 C2 1 4 2 6 3 C6 3.66 6 4.32 6 5 C14.91 5 23.82 5 33 5 C33 5.33 33 5.66 33 6 C28.43783535 6.14532035 23.87626638 6.23408477 19.3125 6.3125 C17.37213867 6.3753418 17.37213867 6.3753418 15.39257812 6.43945312 C13.52182617 6.46362305 13.52182617 6.46362305 11.61328125 6.48828125 C10.46641846 6.51446533 9.31955566 6.54064941 8.13793945 6.56762695 C4.06837406 5.83147667 2.58660837 4.13861184 0 1 C0 0.67 0 0.34 0 0 Z " fill="#534B7B" transform="translate(23,109)"/>
<path d="M0 0 C0.53367187 0.30292969 1.06734375 0.60585937 1.6171875 0.91796875 C7.32593835 4.12790651 13.12061092 7.11553981 19 10 C19 10.33 19 10.66 19 11 C14.89461167 11.24149343 11.78779579 10.611828 8 9 C5.875 7.0625 5.875 7.0625 4 5 C3.2575 4.46375 2.515 3.9275 1.75 3.375 C1.1725 2.92125 0.595 2.4675 0 2 C0 1.34 0 0.68 0 0 Z " fill="#4B4477" transform="translate(83,213)"/>
<path d="M0 0 C0.99 0 1.98 0 3 0 C3 0.66 3 1.32 3 2 C3.99 2 4.98 2 6 2 C7.71108689 3.62102968 9.37253306 5.29503463 11 7 C12.64864545 8.35555293 14.31003995 9.69631653 16 11 C15.67 11.66 15.34 12.32 15 13 C13.24378329 11.77973218 11.49528005 10.54835931 9.75 9.3125 C8.77546875 8.62800781 7.8009375 7.94351563 6.796875 7.23828125 C4.05359194 5.04288852 2.07498563 2.82099237 0 0 Z " fill="#554C7F" transform="translate(61,216)"/>
<path d="M0 0 C0.66 0 1.32 0 2 0 C2 0.99 2 1.98 2 3 C1.34 3 0.68 3 0 3 C0 3.66 0 4.32 0 5 C0.598125 5.268125 1.19625 5.53625 1.8125 5.8125 C4.06604393 7.03585242 5.42858036 7.97960332 7 10 C7.6875 12.6875 7.6875 12.6875 8 15 C3.22864787 11.42148591 0.70923672 8.31427203 -2 3 C-1.34 2.01 -0.68 1.02 0 0 Z " fill="#4F4782" transform="translate(160,116)"/>
<path d="M0 0 C0.66 0 1.32 0 2 0 C1.34 1.32 0.68 2.64 0 4 C-0.66 4 -1.32 4 -2 4 C-2 4.66 -2 5.32 -2 6 C-3.96875 7.5078125 -3.96875 7.5078125 -6.5 9.125 C-7.3353125 9.66382813 -8.170625 10.20265625 -9.03125 10.7578125 C-9.6809375 11.16773438 -10.330625 11.57765625 -11 12 C-11.66 11.34 -12.32 10.68 -13 10 C-12.360625 9.896875 -11.72125 9.79375 -11.0625 9.6875 C-10.0415625 9.3471875 -10.0415625 9.3471875 -9 9 C-8.67 8.01 -8.34 7.02 -8 6 C-6.03277992 4.61876037 -4.03131672 3.28511874 -2 2 C-1.34 1.34 -0.68 0.68 0 0 Z " fill="#4E447A" transform="translate(216,218)"/>
<path d="M0 0 C3 1 3 1 4.640625 3.6171875 C5.17171875 4.69226563 5.7028125 5.76734375 6.25 6.875 C6.79140625 7.94492188 7.3328125 9.01484375 7.890625 10.1171875 C9 13 9 13 8 16 C6.31821339 13.47732009 5.09893258 11.18908177 3.875 8.4375 C3.52179688 7.65246094 3.16859375 6.86742188 2.8046875 6.05859375 C2 4 2 4 2 2 C1.34 2 0.68 2 0 2 C0 1.34 0 0.68 0 0 Z " fill="#524A7D" transform="translate(237,65)"/>
<path d="M0 0 C0.66 0 1.32 0 2 0 C3.69140625 2.30078125 3.69140625 2.30078125 5.5625 5.3125 C6.18253906 6.29863281 6.80257812 7.28476563 7.44140625 8.30078125 C9 11 9 11 10 14 C9.34 14 8.68 14 8 14 C8 13.34 8 12.68 8 12 C7.34 12 6.68 12 6 12 C4.4921875 9.8828125 4.4921875 9.8828125 2.875 7.125 C2.33617187 6.22007812 1.79734375 5.31515625 1.2421875 4.3828125 C0 2 0 2 0 0 Z " fill="#514584" transform="translate(53,180)"/>
<path d="M0 0 C0.66 0 1.32 0 2 0 C2.53093324 1.93475671 3.04942317 3.87293155 3.5625 5.8125 C3.85253906 6.89144531 4.14257812 7.97039062 4.44140625 9.08203125 C5 12 5 12 4 15 C3.32243118 13.44219668 2.65840543 11.87849904 2 10.3125 C1.62875 9.44238281 1.2575 8.57226562 0.875 7.67578125 C-0.01870488 4.9427998 -0.16449676 2.85299066 0 0 Z " fill="#2B2552" transform="translate(109,154)"/>
<path d="M0 0 C-0.5625 1.9375 -0.5625 1.9375 -2 4 C-4.32115711 4.40961596 -6.65834501 4.73128549 -9 5 C-11.4204773 5.86311594 -13.66929613 6.90599614 -16 8 C-15.67 7.01 -15.34 6.02 -15 5 C-12.12890625 3.61328125 -12.12890625 3.61328125 -8.5625 2.3125 C-6.80099609 1.65701172 -6.80099609 1.65701172 -5.00390625 0.98828125 C-2 0 -2 0 0 0 Z " fill="#433D6D" transform="translate(106,16)"/>
<path d="M0 0 C1.32 0.33 2.64 0.66 4 1 C2.6875 4.4375 2.6875 4.4375 1 8 C-1.99531539 8.99843846 -3.17255732 9.00732761 -6.1875 8.5625 C-7.445625 8.376875 -8.70375 8.19125 -10 8 C-10 7.67 -10 7.34 -10 7 C-7.03 7 -4.06 7 -1 7 C-0.67 4.69 -0.34 2.38 0 0 Z " fill="#514A7A" transform="translate(52,77)"/>
<path d="M0 0 C8.44646925 6.15034169 8.44646925 6.15034169 12 10 C11.67 10.66 11.34 11.32 11 12 C10.34 11.67 9.68 11.34 9 11 C9 10.34 9 9.68 9 9 C8.443125 8.95875 7.88625 8.9175 7.3125 8.875 C3.705605 7.51022892 2.26961504 5.08919824 0 2 C0 1.34 0 0.68 0 0 Z " fill="#4B4577" transform="translate(70,202)"/>
<path d="M0 0 C-1 3 -1 3 -2.77734375 4.203125 C-3.49019531 4.54859375 -4.20304688 4.8940625 -4.9375 5.25 C-6.00291016 5.78367188 -6.00291016 5.78367188 -7.08984375 6.328125 C-8.03537109 6.66070312 -8.03537109 6.66070312 -9 7 C-9.66 6.67 -10.32 6.34 -11 6 C-7.87921364 2.5324596 -4.85451611 0 0 0 Z " fill="#564E89" transform="translate(198,232)"/>
<path d="M0 0 C-0.33 0.66 -0.66 1.32 -1 2 C-4.63 2 -8.26 2 -12 2 C-12.33 1.34 -12.66 0.68 -13 0 C-11.58456585 -0.19658808 -10.16755969 -0.38187546 -8.75 -0.5625 C-7.96109375 -0.66691406 -7.1721875 -0.77132812 -6.359375 -0.87890625 C-3.99467126 -1.00027349 -2.2488963 -0.69633257 0 0 Z " fill="#514979" transform="translate(161,231)"/>
<path d="M0 0 C0.66 0 1.32 0 2 0 C1.731875 1.0725 1.46375 2.145 1.1875 3.25 C1.125625 4.4875 1.06375 5.725 1 7 C3.30068019 9.49210521 3.30068019 9.49210521 6 11 C5.01 11.495 5.01 11.495 4 12 C1.4375 10.875 1.4375 10.875 -1 9 C-2.14880448 6.01310836 -2.26807437 4.66125011 -1.0625 1.6875 C-0.711875 1.130625 -0.36125 0.57375 0 0 Z " fill="#4F467B" transform="translate(14,127)"/>
<path d="M0 0 C0.99 0 1.98 0 3 0 C3 0.66 3 1.32 3 2 C2.01 2.495 2.01 2.495 1 3 C1 3.928125 1 4.85625 1 5.8125 C1 7.875 1 9.9375 1 12 C-0.5625 11 -0.5625 11 -2 9 C-2.01689698 6.19510065 -1.5386319 3.78293146 -1 1 C-0.67 0.67 -0.34 0.34 0 0 Z " fill="#4D4373" transform="translate(213,102)"/>
<path d="M0 0 C0.66 0 1.32 0 2 0 C2.99 1.98 3.98 3.96 5 6 C3.68 7.32 2.36 8.64 1 10 C1 9.01 1 8.02 1 7 C0.68330179 4.66435067 0.35179197 2.3306218 0 0 Z " fill="#5A5189" transform="translate(67,104)"/>
<path d="M0 0 C-2.34295943 1.56197295 -4.69014198 3.10846459 -7.0625 4.625 C-7.75472656 5.07101563 -8.44695312 5.51703125 -9.16015625 5.9765625 C-11 7 -11 7 -13 7 C-11.78836152 3.36508457 -10.89228938 3.04753785 -7.625 1.25 C-6.83351563 0.80140625 -6.04203125 0.3528125 -5.2265625 -0.109375 C-3 -1 -3 -1 0 0 Z " fill="#534C83" transform="translate(91,24)"/>
<path d="M0 0 C0.66 0 1.32 0 2 0 C0.74194623 4.50802601 -0.90407165 7.4912812 -4 11 C-4.33 10.34 -4.66 9.68 -5 9 C-4.00390625 6.8359375 -4.00390625 6.8359375 -2.5625 4.375 C-2.08941406 3.55773437 -1.61632812 2.74046875 -1.12890625 1.8984375 C-0.75636719 1.27195313 -0.38382813 0.64546875 0 0 Z " fill="#534A86" transform="translate(241,186)"/>
<path d="M0 0 C0.33 0 0.66 0 1 0 C1.33 3.63 1.66 7.26 2 11 C1.01 11 0.02 11 -1 11 C-1.02688151 9.35425434 -1.04634123 7.70838587 -1.0625 6.0625 C-1.07410156 5.14597656 -1.08570312 4.22945312 -1.09765625 3.28515625 C-1 1 -1 1 0 0 Z " fill="#3D3565" transform="translate(109,142)"/>
<path d="M0 0 C1 2 1 2 0.375 4.0625 C-1 6 -1 6 -3.625 6.75 C-4.800625 6.87375 -4.800625 6.87375 -6 7 C-6 6.34 -6 5.68 -6 5 C-5.34 5 -4.68 5 -4 5 C-4 4.01 -4 3.02 -4 2 C-2.68 1.34 -1.36 0.68 0 0 Z " fill="#544C7D" transform="translate(71,155)"/>
<path d="M0 0 C2.91227269 3.28804981 4.49701212 5.59885603 5 10 C4.01 10.495 4.01 10.495 3 11 C1.68 7.7 0.36 4.4 -1 1 C-0.67 0.67 -0.34 0.34 0 0 Z " fill="#4F477B" transform="translate(127,58)"/>
<path d="M0 0 C0.75 1.75 0.75 1.75 1 4 C-1.21867135 6.77333918 -2.60620325 7.86873442 -6 9 C-5.67 8.01 -5.34 7.02 -5 6 C-4.34 5.67 -3.68 5.34 -3 5 C-2.67 4.01 -2.34 3.02 -2 2 C-1.34 2 -0.68 2 0 2 C0 1.34 0 0.68 0 0 Z " fill="#4B446B" transform="translate(62,130)"/>
<path d="M0 0 C0.66 0 1.32 0 2 0 C1.43454163 3.95820859 0.19097652 6.6659053 -2 10 C-3.39195915 5.82412255 -1.82323219 3.86525224 0 0 Z " fill="#4F4677" transform="translate(165,106)"/>
<path d="M0 0 C-2.70188004 1.80125336 -4.93057703 3.00243753 -8 4 C-8.99 3.67 -9.98 3.34 -11 3 C-7.72430636 -0.27569364 -4.48909309 -0.12469703 0 0 Z " fill="#514977" transform="translate(187,239)"/>
<path d="M0 0 C1.46726798 3.81489674 0.43336419 6.29011622 -1 10 C-1.66 10 -2.32 10 -3 10 C-2.49287967 6.28111761 -1.88391785 3.26545761 0 0 Z " fill="#241E45" transform="translate(174,147)"/>
<path d="M0 0 C0.66 0.33 1.32 0.66 2 1 C1.67 3.97 1.34 6.94 1 10 C0.01 9.67 -0.98 9.34 -2 9 C-1.34 6.03 -0.68 3.06 0 0 Z " fill="#46406D" transform="translate(37,76)"/>
<path d="M0 0 C2.75 0.25 2.75 0.25 5 1 C4.01 2.485 4.01 2.485 3 4 C-0.625 4.1875 -0.625 4.1875 -4 4 C-2.3125 1.9375 -2.3125 1.9375 0 0 Z " fill="#6357A6" transform="translate(159,57)"/>
<path d="M0 0 C4.7517398 0.43197635 6.92000054 1.32769295 10 5 C6.05140217 4.4359146 3.29120954 3.2568294 0 1 C0 0.67 0 0.34 0 0 Z " fill="#524B7D" transform="translate(117,53)"/>
<path d="M0 0 C4.55384615 -0.36923077 4.55384615 -0.36923077 6.8125 1.5 C7.204375 1.995 7.59625 2.49 8 3 C7.67 3.99 7.34 4.98 7 6 C6.38125 5.2884375 6.38125 5.2884375 5.75 4.5625 C3.817815 2.83733482 2.51807725 2.43415125 0 2 C0 1.34 0 0.68 0 0 Z " fill="#4B4070" transform="translate(63,149)"/>
<path d="M0 0 C2 1 2 1 3.125 3.375 C4 6 4 6 4 9 C0.06153846 5.67692308 0.06153846 5.67692308 -0.25 2.25 C-0.1675 1.5075 -0.085 0.765 0 0 Z " fill="#534576" transform="translate(220,129)"/>
<path d="M0 0 C0.99 0 1.98 0 3 0 C3.99 2.64 4.98 5.28 6 8 C5.01 8.495 5.01 8.495 4 9 C1.8480563 5.77208445 1.79913557 4.71599191 2 1 C1.34 0.67 0.68 0.34 0 0 Z " fill="#4A437A" transform="translate(162,88)"/>
<path d="M0 0 C0.99 0.33 1.98 0.66 3 1 C0.03 4.96 0.03 4.96 -3 9 C-3.33 7.68 -3.66 6.36 -4 5 C-2.0625 2.25 -2.0625 2.25 0 0 Z " fill="#504A76" transform="translate(64,61)"/>
<path d="M0 0 C0.93423645 3.01031744 1.04449911 3.86650268 0 7 C-0.66 7 -1.32 7 -2 7 C-2.125 4.625 -2.125 4.625 -2 2 C-1.34 1.34 -0.68 0.68 0 0 Z M-4 7 C-3.01 7.495 -3.01 7.495 -2 8 C-2.99 8.495 -2.99 8.495 -4 9 C-4 8.34 -4 7.68 -4 7 Z " fill="#59508B" transform="translate(49,57)"/>
<path d="M0 0 C2.64752004 2.57784846 4.94432065 4.91648098 7 8 C3.2047869 6.50902342 1.38957269 4.24299151 -1 1 C-0.67 0.67 -0.34 0.34 0 0 Z " fill="#4F477A" transform="translate(63,194)"/>
<path d="M0 0 C1.06546953 3.1964086 1.07427838 5.65747276 1 9 C0.34 9 -0.32 9 -1 9 C-1.33 6.36 -1.66 3.72 -2 1 C-1.34 0.67 -0.68 0.34 0 0 Z " fill="#4F477D" transform="translate(111,136)"/>
</svg>
